<svg width="20" height="20" viewBox="0 0 20 20" fill="none" xmlns="http://www.w3.org/2000/svg">
<path d="M18.2159 1.78301C17.0822 0.649015 15.6223 0.0158417 14.1054 9.8305e-05C12.54 -0.0151763 11.0154 0.637022 9.81156 1.83926C8.71887 2.93056 7.91316 4.41891 7.60113 5.92266C7.25914 7.56998 6.47172 9.04747 5.32386 10.1954L5.27402 10.2452C5.16273 10.3565 5.10011 10.5075 5.10011 10.6649C5.10011 10.8223 5.16261 10.9733 5.27394 11.0846L5.53679 11.3475L3.28277 13.6017C2.93554 13.4068 2.53742 13.3065 2.13409 13.3192C1.52011 13.3382 0.957375 13.6032 0.549484 14.0652C-0.182509 14.8944 -0.183134 16.1454 0.548117 16.9752C0.941359 17.4216 1.48382 17.6861 2.07558 17.7202C2.18191 17.7264 2.27339 17.8179 2.27949 17.9242C2.31355 18.5159 2.57812 19.0584 3.02445 19.4518C3.43902 19.8172 3.95874 19.9998 4.47855 19.9998C4.99894 19.9998 5.51945 19.8167 5.93425 19.4504C6.39625 19.0425 6.66121 18.4797 6.68027 17.8657C6.69277 17.4622 6.59269 17.0642 6.39773 16.7169L8.65176 14.4627L8.9148 14.7258C9.03066 14.8416 9.18258 14.8996 9.33441 14.8996C9.48621 14.8996 9.63805 14.8417 9.75391 14.726L9.80402 14.6759C10.9513 13.5285 12.4293 12.7408 14.0782 12.398C15.5795 12.0859 17.0658 11.2816 18.1559 10.1914C19.3605 8.98676 20.0154 7.46137 19.9998 5.89629C19.9847 4.37918 19.3512 2.91841 18.2159 1.78301ZM5.19687 16.2392C4.96511 16.4709 4.96511 16.8467 5.19687 17.0784C5.39722 17.2788 5.50273 17.5453 5.49394 17.8287C5.48511 18.1118 5.3625 18.3718 5.14867 18.5606C4.77324 18.8921 4.18476 18.8924 3.80902 18.5612C3.60242 18.3792 3.48003 18.1287 3.46433 17.8561C3.42339 17.1441 2.85562 16.5762 2.14367 16.5353C1.87093 16.5196 1.6205 16.3971 1.43847 16.1905C1.10738 15.8147 1.10769 15.2263 1.43917 14.8508C1.62792 14.637 1.88781 14.5143 2.17089 14.5055C2.18187 14.5052 2.19281 14.505 2.2037 14.505C2.47488 14.505 2.72855 14.61 2.92117 14.8026C3.15285 15.0343 3.52859 15.0343 3.76039 14.8026L6.37601 12.1868L7.81254 13.6234L5.19687 16.2392ZM17.3166 9.35199C16.3995 10.2692 15.0986 10.9734 13.8367 11.2358C12.1373 11.5891 10.5948 12.3603 9.34484 13.4771L6.52238 10.6545C7.63969 9.40394 8.4107 7.86195 8.76316 6.16385C9.02551 4.89993 9.73094 3.59721 10.6502 2.67913C12.617 0.714997 15.4459 0.691128 17.3766 2.62229C19.3088 4.55463 19.2836 7.38492 17.3166 9.35199Z" fill="#FB6D3A"/>
<ellipse cx="13.4091" cy="2.95444" rx="0.681819" ry="0.681818" fill="#FB6D3A"/>
<ellipse cx="15.2273" cy="4.31805" rx="0.681819" ry="0.681818" fill="#FB6D3A"/>
<ellipse cx="12.5001" cy="5.22723" rx="0.681818" ry="0.681818" fill="#FB6D3A"/>
</svg>
