<svg width="24" height="23" viewBox="0 0 24 23" fill="none" xmlns="http://www.w3.org/2000/svg">
<path d="M18.3289 19.5406C18.172 19.5406 18.0449 19.4134 18.0449 19.2566V18.6839C18.0449 18.527 18.1721 18.3999 18.3289 18.3999C18.4857 18.3999 18.6129 18.5271 18.6129 18.6839V19.2566C18.6129 19.4135 18.4857 19.5406 18.3289 19.5406Z" fill="#FB6D3A"/>
<path d="M19.9474 18.5308C19.7906 18.5308 19.6634 18.4036 19.6634 18.2468V17.6742C19.6634 17.5173 19.7906 17.3901 19.9474 17.3901C20.1043 17.3901 20.2314 17.5173 20.2314 17.6742V18.2468C20.2314 18.4037 20.1042 18.5308 19.9474 18.5308Z" fill="#FB6D3A"/>
<path d="M20.967 14.3049C20.9784 14.2666 20.9905 14.2286 21.0009 14.1898C21.3721 12.8066 21.1497 11.2418 20.3578 9.66454C19.6342 8.22323 18.1798 6.86259 16.3676 5.93147C15.6381 5.55661 14.7273 5.20022 13.9182 5.06072C13.4454 4.65961 13.1535 4.06425 13.1535 3.41818V1.49518C13.1535 0.698917 12.5057 0.0511055 11.7095 0.0511055H10.0652C9.26891 0.0511055 8.6211 0.698917 8.6211 1.49518V3.41818C8.6211 4.03205 8.35734 4.5998 7.92553 4.99898C6.98906 4.99603 5.7481 5.44851 4.80816 5.93147C2.99598 6.86259 1.54159 8.22323 0.817936 9.66454C0.0260323 11.2418 -0.196342 12.8066 0.174813 14.1898C0.528343 15.5074 1.4124 16.5791 2.6642 17.2076C3.36277 17.5584 4.1034 17.7348 4.8421 17.7348C5.42714 17.7347 6.01111 17.624 6.57145 17.4015C6.78703 17.3159 6.99698 17.2147 7.20108 17.0989C8.16815 18.1298 9.49199 18.6957 10.9463 18.6957C11.3634 18.6957 11.7695 18.6482 12.1598 18.5574C13.0582 20.5836 15.2777 22.0207 17.8667 22.0207C21.2486 22.0207 24 19.5686 24 16.5545C24 15.3625 22.6657 14.6593 20.967 14.3049ZM15.935 6.77348C17.5726 7.61488 18.8762 8.82346 19.5119 10.0893C20.2479 11.5552 20.4024 12.9801 20.0254 14.1473C19.3157 14.0549 18.5763 14.013 17.8668 14.013C17.3141 14.013 16.7434 14.0386 16.1828 14.0934C16.2996 13.5298 16.3593 12.9283 16.3593 12.2948C16.3593 10.5465 15.616 8.51985 14.3199 6.73425C14.1424 6.48984 13.9437 6.23732 13.7309 5.98954C14.2845 6.0809 15.0513 6.3194 15.935 6.77348V6.77348ZM9.56774 3.41818V1.49518C9.56774 1.22092 9.79091 0.997744 10.0652 0.997744H11.7095C11.9837 0.997744 12.2069 1.22092 12.2069 1.49518V3.41818C12.2069 3.91917 12.3292 4.3987 12.5477 4.82494C11.9975 4.38464 11.436 4.0861 10.9463 4.0861C10.3907 4.0861 9.74263 4.47014 9.12365 5.00991C9.40668 4.5397 9.56774 3.99314 9.56774 3.41818V3.41818ZM6.22209 16.5218C5.20875 16.9242 4.09604 16.8674 3.08898 16.3617C0.903811 15.2645 0.331141 12.7438 1.66393 10.0893C2.29951 8.82341 3.60319 7.61484 5.24077 6.77348C6.42206 6.16654 7.39429 5.94464 7.92806 5.94464C8.02846 5.94464 8.11312 5.95261 8.18095 5.96718C7.96092 6.22209 7.75546 6.48248 7.5727 6.73425C6.27661 8.51985 5.53331 10.5466 5.53331 12.2948C5.53331 13.8748 5.90334 15.2568 6.60966 16.3425C6.48276 16.409 6.35372 16.4695 6.22209 16.5218V16.5218ZM10.9463 17.749C8.27484 17.749 6.47995 15.5571 6.47995 12.2948C6.47995 10.7419 7.15748 8.91782 8.33882 7.29032C9.45665 5.75029 10.5556 5.03278 10.9463 5.03278C11.337 5.03278 12.436 5.75029 13.5538 7.29032C14.7351 8.91782 15.4127 10.7419 15.4127 12.2948C15.4127 12.9916 15.3304 13.6392 15.1754 14.2273C13.2868 14.5511 11.7335 15.2683 11.7335 16.5545C11.7335 16.9325 11.7768 17.3016 11.8591 17.6581C11.5682 17.718 11.2634 17.749 10.9463 17.749V17.749ZM17.8667 21.0741C15.0068 21.0741 12.6801 19.0466 12.6801 16.5545C12.6801 16.1524 13.2056 15.7511 14.1217 15.4536C15.0881 15.1398 16.4531 14.9597 17.8667 14.9597C19.2804 14.9597 20.6454 15.1398 21.6117 15.4536C22.5278 15.7511 23.0533 16.1524 23.0533 16.5545C23.0533 19.0466 20.7266 21.0741 17.8667 21.0741Z" fill="#FB6D3A"/>
<path d="M8.0577 12.2777C8.04467 12.2777 8.0315 12.2771 8.01828 12.276C7.75775 12.2546 7.56397 12.026 7.58544 11.7655C7.6881 10.5201 8.00567 9.40879 8.52931 8.46248C8.65587 8.23373 8.94387 8.151 9.17262 8.27751C9.40137 8.40412 9.48415 8.69212 9.35759 8.92082C8.89925 9.74905 8.62044 10.7323 8.52889 11.8432C8.5085 12.0905 8.30145 12.2777 8.0577 12.2777V12.2777Z" fill="#FB6D3A"/>
<path d="M10.0843 7.64018C9.9656 7.64018 9.84682 7.59584 9.75489 7.50673C9.56721 7.3248 9.56252 7.02513 9.74444 6.83745C9.87133 6.70652 10.0421 6.53698 10.2382 6.38665C10.4456 6.22756 10.7428 6.26679 10.9018 6.47426C11.0609 6.68168 11.0217 6.97882 10.8142 7.13787C10.6671 7.2507 10.5285 7.3887 10.4242 7.49632C10.3314 7.59204 10.2079 7.64018 10.0843 7.64018Z" fill="#FB6D3A"/>
<path d="M2.28729 12.2546C2.25682 12.2546 2.22588 12.2516 2.19485 12.2454C1.93878 12.1946 1.77214 11.9466 1.82243 11.6904C1.83856 11.6084 2.23395 9.66792 3.70052 8.52328C3.90658 8.36236 4.20405 8.39907 4.36483 8.60513C4.5257 8.81124 4.489 9.10866 4.28294 9.26949C3.09954 10.1932 2.75444 11.8571 2.75107 11.8738C2.70607 12.0987 2.50835 12.2546 2.28729 12.2546V12.2546Z" fill="#FB6D3A"/>
</svg>
