<svg width="16" height="24" viewBox="0 0 16 24" fill="none" xmlns="http://www.w3.org/2000/svg">
<path d="M15.8011 5.82575C16.07 5.01951 16.0662 4.14794 15.7904 3.344C15.5146 2.54007 14.9818 1.84791 14.2734 1.37313C13.0594 0.558925 11.7574 0.363325 10.6074 0.822534C9.44262 1.28768 8.59189 2.39174 8.27337 3.85155C8.16989 4.32647 8.07393 4.833 7.98818 5.35715C7.93577 5.67747 7.87353 6.00947 7.80339 6.34396C7.79464 6.39094 7.77118 6.43396 7.73637 6.46688C7.70155 6.49981 7.65717 6.52096 7.60954 6.5273C7.5607 6.53585 7.5104 6.52914 7.46555 6.50811C7.42069 6.48709 7.38349 6.45277 7.35905 6.40987C7.05305 5.88725 6.78829 5.38819 6.57229 4.9263C6.45312 4.67349 6.28305 4.44769 6.07258 4.26285C5.86212 4.07802 5.61574 3.9381 5.34869 3.85174C5.09277 3.76665 4.82184 3.73545 4.55313 3.76012C4.28442 3.78479 4.02381 3.8648 3.78789 3.99504C3.32947 4.24547 2.98862 4.66524 2.83908 5.16358C2.68954 5.66191 2.74332 6.19874 2.9888 6.65796C3.73798 8.08329 5.25273 9.53659 6.39135 10.5048C6.42889 10.5364 6.45556 10.5788 6.46762 10.6262C6.47968 10.6736 6.47653 10.7235 6.4586 10.769C5.72097 12.6096 4.78473 14.3652 3.6663 16.005C3.49943 15.801 3.34701 15.6015 3.21386 15.4099C3.10142 15.2463 2.95285 15.1103 2.77949 15.0125C2.60613 14.9146 2.41258 14.8575 2.2136 14.8454C2.01567 14.8321 1.81732 14.8643 1.63387 14.9394C1.45042 15.0145 1.28676 15.1304 1.15553 15.2783C0.943315 15.5166 0.826174 15.8239 0.826223 16.1422C0.825422 16.3624 0.881697 16.5791 0.989626 16.7715C1.27511 17.2852 1.59345 17.7802 1.94268 18.2533C1.52338 18.7399 1.08893 19.2061 0.639312 19.6518C0.396159 19.894 0.213266 20.1893 0.105212 20.5142C-0.00284137 20.839 -0.0330683 21.1845 0.0169405 21.5231C0.0669493 21.8616 0.195811 22.1839 0.393255 22.4641C0.590699 22.7444 0.851265 22.9749 1.15418 23.1374L1.19947 23.1617C1.51235 23.331 1.86279 23.4199 2.219 23.4203C2.64354 23.4205 3.05811 23.2924 3.40771 23.0529C5.14733 21.863 7.3681 19.6886 9.3482 17.2359C9.37403 17.203 9.4081 17.1774 9.44699 17.1618C9.48588 17.1461 9.52823 17.1409 9.5698 17.1466C10.7588 17.3134 11.9325 17.5746 13.0797 17.9276C13.3599 18.0213 13.6587 18.0467 13.9508 18.0017C14.243 17.9568 14.5201 17.8428 14.7588 17.6694C14.9959 17.5004 15.1889 17.2774 15.3215 17.019C15.4541 16.7606 15.5224 16.4744 15.5209 16.1843V16.1199C15.5271 15.6445 15.3717 15.1809 15.0799 14.8042C14.7881 14.4275 14.377 14.1598 13.9131 14.0444C13.3686 13.9209 12.8139 13.8475 12.2559 13.825C12.2149 13.8232 12.1751 13.8106 12.1407 13.7884C12.1062 13.7663 12.0783 13.7354 12.0598 13.699C12.0399 13.6616 12.0304 13.6196 12.0323 13.5774C12.0342 13.5351 12.0475 13.4942 12.0707 13.4587C13.6186 11.0729 14.8711 8.51007 15.8011 5.82575ZM1.5783 16.4447C1.52657 16.3522 1.5 16.2479 1.50122 16.1422C1.50146 15.9883 1.55811 15.8398 1.66058 15.7245C1.72387 15.653 1.80279 15.5968 1.8913 15.5603C1.97982 15.5237 2.07556 15.5078 2.17121 15.5138C2.26824 15.5198 2.3626 15.5478 2.44708 15.5956C2.53157 15.6434 2.60396 15.7098 2.65872 15.7897C2.83388 16.0421 3.03813 16.3056 3.26531 16.5751C2.9827 16.9667 2.69039 17.3485 2.38837 17.7206C2.09398 17.311 1.82351 16.885 1.5783 16.4447V16.4447ZM11.4607 14.0061C11.5329 14.147 11.6414 14.2664 11.7751 14.3521C11.9089 14.4377 12.0631 14.4866 12.222 14.4936C12.7381 14.5142 13.2512 14.5817 13.7549 14.6954C14.0715 14.7758 14.3515 14.9601 14.5496 15.2185C14.7477 15.4768 14.8523 15.7941 14.8465 16.119V16.1843C14.8476 16.3685 14.8042 16.5502 14.7201 16.7143C14.636 16.8783 14.5135 17.0199 14.363 17.1272C14.2104 17.2379 14.0333 17.3105 13.8466 17.3391C13.66 17.3676 13.4691 17.3513 13.2901 17.2914C12.9579 17.183 12.6178 17.0862 12.2792 16.9993C12.444 16.6404 12.6517 16.1247 12.6608 15.787C12.6631 15.6981 12.6298 15.6118 12.5683 15.5473C12.5378 15.5154 12.5012 15.4897 12.4608 15.4718C12.4203 15.4539 12.3767 15.4441 12.3324 15.4429C12.243 15.4406 12.1563 15.4736 12.0914 15.5349C12.0265 15.5961 11.9887 15.6804 11.9863 15.7693C11.9137 16.1426 11.7865 16.5032 11.6087 16.8397C10.8865 16.6789 10.2036 16.5625 9.66653 16.4841C9.50874 16.4616 9.34776 16.4803 9.19953 16.5386C9.05129 16.5969 8.92094 16.6927 8.82138 16.8165C8.59015 17.1027 8.35622 17.3845 8.1196 17.6617C7.65052 17.483 7.20472 17.249 6.79176 16.9646C6.75738 16.9368 6.71785 16.9161 6.6754 16.9035C6.63295 16.8909 6.58843 16.8868 6.54438 16.8913C6.50033 16.8959 6.45761 16.909 6.41865 16.9299C6.3797 16.9509 6.34528 16.9793 6.31735 17.0134C6.28943 17.0476 6.26855 17.0869 6.25591 17.1291C6.24327 17.1713 6.23911 17.2156 6.24367 17.2594C6.24823 17.3032 6.26143 17.3457 6.2825 17.3844C6.30357 17.4231 6.33211 17.4573 6.36649 17.4851C6.76633 17.7724 7.19938 18.0111 7.65637 18.1959C6.56223 19.4526 5.37071 20.6222 4.09273 21.6939C3.75692 21.4405 3.45287 21.1481 3.18708 20.8228C3.1649 20.7847 3.13539 20.7513 3.10024 20.7245C3.06509 20.6978 3.02498 20.6782 2.98221 20.6668C2.93943 20.6555 2.89483 20.6526 2.85095 20.6584C2.80707 20.6642 2.76476 20.6786 2.72645 20.7006C2.68814 20.7227 2.65457 20.752 2.62766 20.787C2.60076 20.8219 2.58104 20.8618 2.56963 20.9043C2.55822 20.9468 2.55535 20.9912 2.56118 21.0348C2.56701 21.0784 2.58143 21.1205 2.60361 21.1586C2.76932 21.4433 3.2235 21.8483 3.55165 22.1197C3.37187 22.2556 3.19517 22.3847 3.02464 22.5013C2.80509 22.6506 2.54819 22.7364 2.28253 22.7491C2.01687 22.7618 1.75287 22.701 1.51991 22.5734L1.47463 22.5489C1.26231 22.4358 1.07985 22.2745 0.94209 22.0781C0.804334 21.8817 0.715183 21.6557 0.681897 21.4186C0.646637 21.1848 0.667387 20.9461 0.742458 20.7219C0.81753 20.4976 0.944801 20.2942 1.11391 20.1281C1.63707 19.6108 2.13942 19.0633 2.62172 18.4915C2.62731 18.4851 2.63251 18.4786 2.63772 18.4723C3.69876 17.2071 4.64049 15.8476 5.45101 14.4109C5.71949 14.562 5.99874 14.6934 6.28652 14.804C6.36998 14.8336 6.4618 14.8294 6.54214 14.7922C6.62249 14.7551 6.68489 14.688 6.71585 14.6054C6.74682 14.5229 6.74386 14.4315 6.70762 14.3511C6.67138 14.2707 6.60477 14.2078 6.52219 14.1758C6.26473 14.0762 6.01486 13.9582 5.77454 13.8227C6.26229 12.9124 6.69971 11.9763 7.08484 11.0186C7.15502 10.8431 7.16815 10.6501 7.12239 10.4668C7.07664 10.2834 6.97429 10.1189 6.82972 9.99637C5.90195 9.2253 5.05342 8.36461 4.2966 7.42695C4.53168 7.11908 4.92824 6.64627 5.2352 6.47136C5.27362 6.44948 5.30734 6.42028 5.33441 6.38544C5.36149 6.3506 5.38139 6.31079 5.393 6.2683C5.4046 6.22581 5.40767 6.18147 5.40204 6.1378C5.3964 6.09412 5.38217 6.05198 5.36016 6.01378C5.33814 5.97558 5.30878 5.94206 5.27373 5.91514C5.23869 5.88822 5.19865 5.86843 5.15592 5.8569C5.11318 5.84536 5.06858 5.8423 5.02465 5.84791C4.98073 5.85351 4.93834 5.86766 4.89991 5.88954C4.51009 6.1528 4.16791 6.47978 3.8879 6.85662C3.77691 6.6865 3.67594 6.51638 3.58653 6.34703C3.42371 6.04265 3.3879 5.6868 3.48684 5.35639C3.58578 5.02598 3.81152 4.74755 4.11528 4.58127C4.30237 4.47755 4.51306 4.42321 4.72726 4.42341C4.86748 4.42378 5.00677 4.44608 5.14001 4.4895C5.31898 4.54726 5.48413 4.64092 5.62522 4.76469C5.76632 4.88846 5.88036 5.03971 5.9603 5.20906C6.18517 5.68954 6.45937 6.20699 6.77596 6.74723C6.86878 6.90607 7.00777 7.03326 7.17466 7.11209C7.34155 7.19093 7.52853 7.21771 7.71101 7.18892C7.89349 7.16013 8.06294 7.07711 8.19709 6.95079C8.33123 6.82446 8.42379 6.66073 8.46259 6.48113C8.53504 6.1363 8.59902 5.79491 8.65316 5.46578C8.70634 5.13971 8.76357 4.8224 8.82485 4.51383C9.28095 4.74047 9.70449 4.92419 9.72742 4.93415C9.80941 4.96972 9.90227 4.97144 9.98554 4.93895C10.0688 4.90645 10.1357 4.84239 10.1715 4.76087C10.2072 4.67935 10.209 4.58703 10.1763 4.50424C10.1436 4.42144 10.0792 4.35495 9.99718 4.31938C9.99102 4.3167 9.46728 4.08949 8.9711 3.83546C9.26534 2.67661 9.94631 1.81011 10.8595 1.44573C11.7944 1.07082 12.8731 1.24324 13.8965 1.92908C14.4042 2.26977 14.8046 2.74632 15.0514 3.30367C15.2983 3.86102 15.3814 4.47643 15.2914 5.07879C14.7133 4.9314 14.1494 4.73403 13.6059 4.48893C13.5664 4.46717 13.5229 4.45352 13.478 4.4488C13.4331 4.44407 13.3877 4.44836 13.3445 4.46141C13.3013 4.47446 13.2611 4.49601 13.2265 4.52477C13.1918 4.55353 13.1633 4.58893 13.1426 4.62886C13.122 4.66878 13.1096 4.71243 13.1062 4.7572C13.1029 4.80198 13.1086 4.84696 13.123 4.8895C13.1375 4.93204 13.1604 4.97125 13.1904 5.00482C13.2204 5.03839 13.2568 5.06563 13.2976 5.08492C13.885 5.35292 14.4953 5.56809 15.1212 5.72785C14.7753 6.73073 14.3783 7.71543 13.9316 8.67813C13.4335 8.52947 12.2921 8.15915 11.6512 7.71144C11.615 7.68612 11.5741 7.66814 11.5309 7.65853C11.4877 7.64892 11.443 7.64788 11.3993 7.65545C11.3557 7.66301 11.314 7.67905 11.2766 7.70265C11.2392 7.72624 11.2068 7.75693 11.1814 7.79296C11.1559 7.82898 11.1378 7.86964 11.1282 7.91262C11.1185 7.95559 11.1174 8.00004 11.1251 8.04342C11.1327 8.0868 11.1488 8.12826 11.1725 8.16544C11.1963 8.20262 11.2271 8.23479 11.2634 8.26011C11.9484 8.73906 13.07 9.1178 13.6429 9.29233C13.0037 10.601 12.2887 11.8717 11.5015 13.098C11.4146 13.2323 11.365 13.387 11.3578 13.5466C11.3507 13.7061 11.3862 13.8646 11.4607 14.0061V14.0061Z" fill="#FB6D3A"/>
<path d="M4.99289 19.3329C4.83064 19.4915 4.66962 19.6456 4.50981 19.7952C4.44468 19.8562 4.40657 19.9404 4.40388 20.0293C4.40119 20.1182 4.43413 20.2045 4.49546 20.2692C4.55678 20.334 4.64147 20.3719 4.73089 20.3746C4.82031 20.3772 4.90714 20.3445 4.97227 20.2835C5.13567 20.1303 5.3003 19.9727 5.46614 19.8107C5.49849 19.78 5.52438 19.7432 5.5423 19.7025C5.56022 19.6617 5.5698 19.6179 5.5705 19.5734C5.5712 19.5289 5.563 19.4848 5.54637 19.4435C5.52974 19.4022 5.50502 19.3647 5.47365 19.333C5.44228 19.3013 5.40488 19.2761 5.36363 19.2589C5.32238 19.2418 5.2781 19.2329 5.23338 19.2329C5.18866 19.2329 5.14438 19.2417 5.10313 19.2589C5.06187 19.2761 5.02446 19.3012 4.99308 19.3329H4.99289Z" fill="#FB6D3A"/>
<path d="M11.0992 10.5475C11.0926 10.5448 10.4298 10.2804 9.92204 10.0216C9.88264 10.0015 9.83964 9.98926 9.7955 9.98565C9.75135 9.98205 9.70692 9.98712 9.66475 10.0006C9.62257 10.0141 9.58348 10.0357 9.5497 10.0641C9.51592 10.0926 9.48811 10.1275 9.46787 10.1666C9.44763 10.2058 9.43534 10.2485 9.43172 10.2924C9.42809 10.3363 9.4332 10.3805 9.44674 10.4224C9.46029 10.4644 9.482 10.5032 9.51066 10.5368C9.53931 10.5704 9.57434 10.598 9.61374 10.6182C10.15 10.8916 10.82 11.1588 10.8481 11.1701C10.9312 11.2031 11.024 11.202 11.1062 11.167C11.1884 11.1319 11.2533 11.0659 11.2865 10.9833C11.3197 10.9008 11.3186 10.8084 11.2833 10.7267C11.2481 10.645 11.1817 10.5805 11.0986 10.5475H11.0992Z" fill="#FB6D3A"/>
</svg>
