<svg width="24" height="24" viewBox="0 0 24 24" fill="none" xmlns="http://www.w3.org/2000/svg">
<g clip-path="url(#clip0_896_88)">
<path d="M16.8793 8.50793C16.9389 8.5875 17.0278 8.6401 17.1262 8.65416C17.2247 8.66823 17.3247 8.64261 17.4043 8.58293C17.4838 8.52326 17.5364 8.43442 17.5505 8.33597C17.5645 8.23751 17.5389 8.1375 17.4793 8.05793C17.383 7.92959 17.2807 7.80293 17.1754 7.68153C17.1433 7.64391 17.104 7.61302 17.0599 7.59065C17.0157 7.56827 16.9676 7.55486 16.9183 7.55117C16.8689 7.54748 16.8193 7.55359 16.7724 7.56916C16.7254 7.58472 16.682 7.60943 16.6446 7.64185C16.6072 7.67428 16.5766 7.71378 16.5546 7.75808C16.5325 7.80238 16.5195 7.8506 16.5161 7.89997C16.5128 7.94935 16.5193 7.99888 16.5352 8.04574C16.5511 8.09259 16.5762 8.13583 16.6089 8.17296C16.7026 8.2811 16.7936 8.39379 16.8793 8.50793V8.50793Z" fill="#FB6D3A"/>
<path d="M17.8807 14.589C17.9266 14.6067 17.9756 14.6152 18.0249 14.614C18.0741 14.6127 18.1226 14.6018 18.1677 14.5818C18.2127 14.5618 18.2533 14.5331 18.2872 14.4974C18.3212 14.4617 18.3477 14.4196 18.3653 14.3736C18.9067 12.9656 18.9475 11.4143 18.4807 9.97982C18.4499 9.88525 18.3828 9.80681 18.2941 9.76174C18.2055 9.71667 18.1025 9.70866 18.008 9.73949C17.9134 9.77031 17.835 9.83744 17.7899 9.92611C17.7448 10.0148 17.7368 10.1177 17.7676 10.2123C18.181 11.4829 18.1449 12.8571 17.6653 14.1043C17.6296 14.1971 17.6322 14.3003 17.6726 14.3912C17.713 14.4821 17.7878 14.5532 17.8807 14.589V14.589Z" fill="#FB6D3A"/>
<path d="M6.3952 13.707C6.46485 13.7325 6.5405 13.7367 6.61257 13.7192C6.68465 13.7017 6.74991 13.6632 6.80012 13.6087C6.85033 13.5541 6.88322 13.4858 6.89463 13.4125C6.90604 13.3392 6.89547 13.2642 6.86424 13.1969C6.83302 13.1297 6.78255 13.0732 6.71921 13.0346C6.65587 12.996 6.58251 12.977 6.5084 12.9801C6.4343 12.9832 6.36278 13.0083 6.30289 13.052C6.243 13.0958 6.19743 13.1563 6.17194 13.2259C6.13776 13.3193 6.14208 13.4225 6.18395 13.5127C6.22582 13.6029 6.30181 13.6728 6.3952 13.707Z" fill="#FB6D3A"/>
<path d="M4.97344 12.079C5.04309 12.1045 5.11873 12.1088 5.19081 12.0913C5.26289 12.0738 5.32816 12.0353 5.37837 11.9808C5.42858 11.9262 5.46148 11.8579 5.4729 11.7846C5.48432 11.7113 5.47375 11.6363 5.44253 11.569C5.41131 11.5018 5.36084 11.4452 5.2975 11.4067C5.23417 11.3681 5.16081 11.3491 5.0867 11.3522C5.0126 11.3553 4.94107 11.3803 4.88118 11.4241C4.82129 11.4678 4.77571 11.5283 4.75022 11.598C4.71604 11.6914 4.72035 11.7945 4.76221 11.8847C4.80407 11.9749 4.88005 12.0448 4.97344 12.079Z" fill="#FB6D3A"/>
<path d="M5.39235 13.264C5.41785 13.1944 5.42212 13.1187 5.40463 13.0466C5.38714 12.9746 5.34867 12.9093 5.29408 12.8591C5.23949 12.8089 5.17124 12.776 5.09796 12.7646C5.02467 12.7531 4.94965 12.7637 4.88237 12.7949C4.81509 12.8261 4.75858 12.8766 4.71999 12.9399C4.68139 13.0033 4.66244 13.0766 4.66553 13.1507C4.66863 13.2248 4.69362 13.2964 4.73737 13.3563C4.78111 13.4161 4.84163 13.4617 4.91127 13.4872C4.95752 13.5042 5.00665 13.5118 5.05585 13.5098C5.10505 13.5077 5.15337 13.496 5.19805 13.4753C5.24272 13.4545 5.28287 13.4252 5.31621 13.389C5.34955 13.3527 5.37542 13.3103 5.39235 13.264Z" fill="#FB6D3A"/>
<path d="M5.73745 14.3555C5.6678 14.33 5.59215 14.3258 5.52008 14.3433C5.44801 14.3608 5.38275 14.3993 5.33254 14.4538C5.28234 14.5084 5.24945 14.5767 5.23803 14.65C5.22662 14.7233 5.23719 14.7983 5.26841 14.8656C5.29964 14.9328 5.3501 14.9893 5.41344 15.0279C5.47677 15.0665 5.55013 15.0855 5.62423 15.0824C5.69833 15.0793 5.76985 15.0543 5.82975 15.0105C5.88964 14.9668 5.93522 14.9063 5.96071 14.8366C5.97764 14.7904 5.9853 14.7412 5.98324 14.692C5.98119 14.6428 5.96946 14.5945 5.94872 14.5498C5.92799 14.5052 5.89866 14.465 5.86241 14.4317C5.82616 14.3983 5.7837 14.3725 5.73745 14.3555V14.3555Z" fill="#FB6D3A"/>
<path d="M6.75945 15.9278C6.68981 15.9023 6.61417 15.898 6.54209 15.9155C6.47002 15.933 6.40475 15.9715 6.35454 16.0261C6.30433 16.0807 6.27143 16.1489 6.26001 16.2222C6.24859 16.2955 6.25916 16.3705 6.29037 16.4378C6.32159 16.5051 6.37206 16.5616 6.43539 16.6002C6.49872 16.6388 6.57208 16.6577 6.64618 16.6546C6.72028 16.6515 6.7918 16.6265 6.8517 16.5828C6.91159 16.5391 6.95717 16.4785 6.98267 16.4089C6.99961 16.3626 7.00726 16.3135 7.00521 16.2643C7.00315 16.2151 6.99143 16.1668 6.9707 16.1221C6.94997 16.0774 6.92065 16.0373 6.8844 16.004C6.84816 15.9706 6.8057 15.9447 6.75945 15.9278Z" fill="#FB6D3A"/>
<path d="M7.27508 14.519C7.20544 14.4935 7.12979 14.4892 7.05769 14.5066C6.9856 14.5241 6.92031 14.5626 6.87007 14.6171C6.81984 14.6717 6.78692 14.74 6.77548 14.8133C6.76404 14.8866 6.7746 14.9616 6.80581 15.0289C6.83702 15.0962 6.88749 15.1527 6.95083 15.1913C7.01417 15.2299 7.08754 15.2489 7.16165 15.2458C7.23577 15.2427 7.3073 15.2177 7.3672 15.1739C7.4271 15.1302 7.47267 15.0696 7.49816 15C7.53232 14.9066 7.52801 14.8035 7.48618 14.7133C7.44435 14.6231 7.36842 14.5532 7.27508 14.519V14.519Z" fill="#FB6D3A"/>
<path d="M22.8817 15.375H19.5462C20.0446 14.3198 20.3019 13.167 20.2994 12C20.2994 7.8 17.0014 4.32338 12.7525 3.81431V1.125C12.7525 1.02554 12.713 0.930161 12.6427 0.859835C12.5724 0.789509 12.477 0.75 12.3775 0.75H10.9244C10.8249 0.75 10.7296 0.789509 10.6592 0.859835C10.5889 0.930161 10.5494 1.02554 10.5494 1.125V2.295L9.48064 2.43211L7.30822 2.709C5.65266 2.91696 4.14245 3.7594 3.09575 5.05884L0.833378 7.85691C0.783898 7.91811 0.754929 7.99333 0.750575 8.07191C0.74622 8.1505 0.7667 8.22846 0.809114 8.29476C0.851529 8.36105 0.913727 8.41232 0.986899 8.44131C1.06007 8.47029 1.14051 8.47552 1.21682 8.45625L4.33714 7.66814C3.42924 9.06258 2.98175 10.7067 3.05774 12.369C3.13373 14.0312 3.72936 15.6277 4.76071 16.9335C5.83492 18.3051 7.30146 19.317 8.96507 19.8344C9.26724 20.2858 9.61718 20.7033 10.0088 21.0797C11.4703 22.4859 13.418 23.2605 15.4932 23.2605C17.5684 23.2605 19.5163 22.486 20.9776 21.0797C21.6994 20.3926 22.2737 19.5656 22.6655 18.6494C23.0574 17.7331 23.2585 16.7466 23.2567 15.75C23.2567 15.6505 23.2172 15.5552 23.1469 15.4848C23.0765 15.4145 22.9811 15.375 22.8817 15.375V15.375ZM11.7026 19.4197C10.7948 18.552 10.2424 17.3776 10.1528 16.125H14.6743L12.1969 19.8413C12.0237 19.711 11.8586 19.5701 11.7026 19.4197V19.4197ZM15.375 16.426L17.9852 20.3413C17.1811 20.7414 16.2925 20.9419 15.3945 20.9258C14.4965 20.9097 13.6156 20.6775 12.8264 20.2489L15.375 16.426ZM18.63 19.9566L16.0757 16.125H20.8338C20.7442 17.3776 20.1918 18.552 19.284 19.4197C19.0806 19.6157 18.8619 19.7952 18.63 19.9566V19.9566ZM11.2994 1.5H12.0025V3.75H11.2994V1.5ZM10.5494 3.82031C10.0574 3.88173 9.57145 3.98418 9.09655 4.12659L9.7453 3.15431L10.5496 3.05119L10.5494 3.82031ZM8.24136 4.05703L7.97778 4.45214C7.94628 4.49934 7.91371 4.54589 7.8808 4.59234C7.44933 4.79521 7.03522 5.03312 6.64264 5.30367L6.66608 5.04844L8.24136 4.05703ZM7.40296 3.453L7.89196 3.39066L5.42952 4.94063C5.40139 4.92619 4.48011 4.719 4.48011 4.719C5.31403 4.0274 6.32803 3.5882 7.40296 3.453V3.453ZM3.67878 5.53036C3.73007 5.46695 3.7826 5.40488 3.83638 5.34413C3.84332 5.34609 3.85016 5.34825 3.85728 5.34984L4.54053 5.49984L2.83621 6.57263L3.67878 5.53036ZM4.62097 6.82294L3.3275 7.14966L5.86677 5.5515L5.83119 5.93766C5.56428 6.17315 5.31246 6.42522 5.07721 6.69234C4.95102 6.73214 4.73539 6.79406 4.62088 6.82294H4.62097ZM5.35175 16.4719C4.34551 15.1986 3.79853 13.6229 3.79939 12C3.79939 7.8645 7.33208 4.5 11.6744 4.5C16.0167 4.5 19.5494 7.8645 19.5494 12C19.5519 13.1758 19.2638 14.334 18.7107 15.3716C18.71 15.3727 18.7097 15.3739 18.7091 15.375H8.10467C8.00522 15.375 7.90984 15.4145 7.83951 15.4848C7.76918 15.5552 7.72967 15.6505 7.72967 15.75C7.72754 16.8096 7.95509 17.8571 8.39666 18.8203C7.20381 18.3002 6.15787 17.4935 5.35175 16.4719V16.4719ZM20.4576 20.5394C19.1367 21.8106 17.3736 22.5107 15.4933 22.5107C13.6129 22.5107 11.85 21.8106 10.5289 20.5394C9.31203 19.3812 8.5829 17.8024 8.49027 16.125H9.40152C9.49136 17.5816 10.1271 18.9508 11.182 19.9594C12.33 21.0667 13.8611 21.6766 15.4933 21.6766C17.1254 21.6766 18.6566 21.0668 19.8047 19.9594C20.8595 18.9508 21.4953 17.5816 21.5851 16.125H22.4963C22.4036 17.8024 21.6745 19.3812 20.4576 20.5394V20.5394Z" fill="#FB6D3A"/>
</g>
<defs>
<clipPath id="clip0_896_88">
<rect width="24" height="24" fill="white"/>
</clipPath>
</defs>
</svg>
