<svg width="14" height="22" viewBox="0 0 14 22" fill="none" xmlns="http://www.w3.org/2000/svg">
<path d="M6.99984 1.14681C8.25426 1.14681 9.3394 1.57049 10.0321 2.19271C10.7203 2.81109 11.0067 3.60413 10.7567 4.40462L10.6551 4.73079L10.9823 4.82454C11.5915 4.99968 12.0378 5.5621 12.0379 6.22493C12.0379 6.85279 11.6382 7.391 11.078 7.59505L10.8436 7.68001L10.8592 7.93001C10.9374 9.14701 11.3264 10.6478 11.8211 12.18C12.3175 13.7173 12.9292 15.313 13.4647 16.721C14.2221 18.7139 12.7476 20.8529 10.6151 20.8529H3.3846C1.25271 20.8528 -0.222545 18.7144 0.534994 16.721C1.0568 15.349 1.6682 13.758 2.16781 12.2142C2.66579 10.6754 3.06169 9.1562 3.14046 7.93001L3.15609 7.68001L2.92171 7.59505C2.36149 7.39097 1.96175 6.85275 1.96175 6.22493C1.96187 5.5621 2.40823 4.99964 3.01742 4.82454L3.34456 4.73079L3.243 4.40462C2.99312 3.60427 3.27948 2.81111 3.96761 2.19271C4.66018 1.57047 5.74525 1.14682 6.99984 1.14681ZM6.84945 12.765L1.70199 15.3753L1.58578 15.4339L1.53988 15.555C1.37482 15.9933 1.21625 16.4102 1.02718 16.9076C0.399326 18.5593 1.61584 20.3255 3.3846 20.3255H10.6151C12.3821 20.3255 13.601 18.5609 12.9725 16.9076C12.7931 16.4358 12.6273 15.9998 12.4598 15.555L12.4139 15.4339L12.2987 15.3753L7.15023 12.765L6.99984 12.6878L6.84945 12.765ZM3.66488 7.99349C3.55266 9.65906 2.914 11.7654 2.14535 13.9144L1.86312 14.7025L2.60921 14.3245L6.8807 12.1576C6.95547 12.1196 7.04411 12.1196 7.11898 12.1576L11.3905 14.3245L12.1366 14.7025L11.8543 13.9144C11.0857 11.7654 10.448 9.65904 10.3358 7.99349L10.3143 7.68196H3.68538L3.66488 7.99349ZM3.41878 5.29525C2.90569 5.29526 2.48924 5.71187 2.4891 6.22493C2.4891 6.73812 2.9056 7.15558 3.41878 7.1556H10.5809C11.0941 7.1556 11.5116 6.73813 11.5116 6.22493C11.5114 5.71186 11.094 5.29525 10.5809 5.29525H3.41878ZM7.9305 1.75716L7.64144 1.7181C7.21425 1.66011 6.78529 1.6601 6.35824 1.7181L6.07015 1.75716V2.64388C6.07015 2.78931 5.95187 2.9074 5.80648 2.90755C5.66096 2.90755 5.54281 2.7894 5.54281 2.64388V2.39583H5.2098L5.06624 2.09505C4.57873 2.32757 4.13531 2.67258 3.88656 3.10384C3.62657 3.5546 3.58903 4.08922 3.91292 4.61068L4.01058 4.7679H9.9891L10.0868 4.61068C10.3959 4.11288 10.3786 3.58902 10.1307 3.13509C9.8926 2.69909 9.45285 2.34277 8.93343 2.09505L8.45687 1.86849V2.64388C8.45687 2.7894 8.33872 2.90755 8.1932 2.90755C8.04785 2.90735 7.9305 2.78928 7.9305 2.64388V1.75716Z" fill="#FB6D3A" stroke="#FB6D3A" stroke-width="0.666667"/>
</svg>
