<svg width="24" height="24" viewBox="0 0 24 24" fill="none" xmlns="http://www.w3.org/2000/svg">
<g clip-path="url(#clip0_896_103)">
<path d="M22.7483 8.30569C22.162 6.73034 21.1058 5.51355 19.6937 4.7867C19.4233 4.65062 19.194 4.44519 19.029 4.19141C18.864 3.93763 18.7694 3.6446 18.7548 3.34227L18.7487 3.11258C18.7465 3.02899 18.7165 2.94852 18.6633 2.88398C18.6101 2.81943 18.5369 2.7745 18.4553 2.75633C18.3737 2.73817 18.2883 2.7478 18.2128 2.78371C18.1373 2.81962 18.0759 2.87974 18.0385 2.95452L17.9357 3.15946C17.7942 3.42709 17.5842 3.65235 17.3271 3.81222C17.07 3.97208 16.7751 4.06082 16.4725 4.06936C14.7854 4.13198 13.2446 4.87867 12.0475 6.12874C11.5193 4.91609 10.693 3.85671 9.64548 3.04913C8.59795 2.24155 7.3632 1.71199 6.05608 1.50972L1.18225 0.754741C1.1194 0.745005 1.05511 0.751412 0.99542 0.773361C0.93573 0.79531 0.882603 0.83208 0.841034 0.880212C0.799465 0.928344 0.77082 0.986258 0.757792 1.04851C0.744765 1.11076 0.747782 1.1753 0.766562 1.23606L2.22348 5.94785C2.8259 7.89648 4.16329 9.53402 5.9523 10.5135C5.57254 10.6809 5.2067 10.8783 4.85823 11.1037C3.44809 12.0183 2.48997 13.3138 2.08745 14.8502C2.01337 15.1437 1.86267 15.4123 1.65077 15.6285C1.43886 15.8447 1.17334 16.0007 0.881359 16.0806L0.65889 16.1364C0.57772 16.1566 0.505653 16.2035 0.454154 16.2694C0.402654 16.3353 0.37468 16.4166 0.37468 16.5002C0.37468 16.5839 0.402654 16.6652 0.454154 16.7311C0.505653 16.797 0.57772 16.8438 0.65889 16.8641L0.881359 16.9199C1.17333 16.9998 1.43885 17.1558 1.65076 17.372C1.86266 17.5882 2.01337 17.8567 2.08745 18.1503C2.48997 19.6867 3.44809 20.9821 4.85823 21.8967C6.22356 22.7823 7.91505 23.2503 9.74983 23.2503C12.902 23.2503 15.5157 21.9073 16.7845 19.6938C16.7914 19.6938 16.7986 19.6944 16.8052 19.6944C16.9296 19.6944 17.0538 19.6843 17.1765 19.6643C20.0113 19.2023 22.245 16.7922 23.0061 13.3745C23.405 11.5836 23.3158 9.83083 22.7483 8.30569V8.30569ZM11.4987 6.76845C11.0579 7.34603 10.6909 7.9763 10.4061 8.64469L10.0986 8.37919L10.1768 4.56933C10.7471 5.21613 11.1951 5.9613 11.4987 6.76845V6.76845ZM3.26167 6.56961L6.13042 5.94326L7.16838 6.83961L3.72062 7.41951C3.54852 7.14696 3.39518 6.863 3.26167 6.56961V6.56961ZM3.97886 4.0852L2.51669 4.35708L1.86934 2.26352L3.97886 4.0852ZM2.35952 1.69586L4.52491 2.03135L4.46903 3.51759L2.35952 1.69586ZM2.94002 5.72627L2.73967 5.07836L4.70575 4.71301L5.42078 5.33055L2.98473 5.86244C2.96969 5.8173 2.95412 5.77197 2.94002 5.72627V5.72627ZM7.73012 2.77662L7.65845 6.27199L6.6205 5.37564L6.82244 2.44634C7.13216 2.53566 7.43543 2.64601 7.73012 2.77662V2.77662ZM8.47248 3.15852C8.81413 3.36127 9.13817 3.59232 9.4412 3.84923L9.36152 7.74262L8.39589 6.90856L8.47248 3.15852ZM6.08247 2.27529L5.911 4.76288L5.19592 4.14534L5.27092 2.14699L5.94123 2.25087C5.98853 2.25818 6.03545 2.26699 6.08247 2.27529V2.27529ZM4.20658 8.09836L7.90539 7.47623L8.87102 8.31024L5.03083 8.95618C4.73257 8.69379 4.45686 8.40685 4.20658 8.09836V8.09836ZM5.85128 9.57878L9.60831 8.94685L10.1211 9.38973C10.0808 9.50952 10.0426 9.63092 10.0065 9.75396C9.92125 9.75199 9.83589 9.75016 9.74983 9.75016C8.79424 9.74556 7.84316 9.88138 6.92706 10.1533C6.5526 9.99312 6.19266 9.8009 5.85128 9.57878V9.57878ZM5.26637 11.733C5.80788 11.3848 6.39302 11.1096 7.00661 10.9147C7.01758 10.9117 7.02822 10.9079 7.03886 10.9039C7.91648 10.6311 8.83082 10.495 9.74983 10.5002C12.938 10.5002 15.5092 11.9761 16.46 14.352C16.5841 14.6577 16.6064 14.9954 16.5235 15.3148C16.4406 15.6342 16.257 15.9184 15.9999 16.1252H15.6218C15.721 15.8438 15.7632 15.5455 15.7461 15.2477C15.729 14.9498 15.6529 14.6583 15.5222 14.3901C15.3915 14.1219 15.2088 13.8823 14.9848 13.6853C14.7607 13.4882 14.4997 13.3377 14.217 13.2424C13.8691 12.7704 13.3415 12.397 12.7163 12.1833C12.3408 12.0537 11.9451 11.9923 11.548 12.002C11.0535 11.5283 10.3021 11.2502 9.49623 11.2502C8.67194 11.2502 7.90717 11.54 7.41339 12.0323C7.12214 12.0585 6.83555 12.1226 6.56083 12.2228C5.60856 12.568 4.91397 13.2735 4.73087 14.0596C4.32712 14.2329 3.98326 14.5211 3.74214 14.8884C3.50101 15.2557 3.37327 15.6859 3.37483 16.1252H2.21261C2.50045 15.8196 2.70689 15.4465 2.81298 15.0403C3.16731 13.6877 4.01566 12.5439 5.26637 11.733V11.733ZM8.51481 19.2352L8.14825 18.8685C7.83519 18.5544 7.41346 18.3725 6.97014 18.3603L5.26216 18.3041C5.23584 18.3033 5.20951 18.3052 5.18359 18.3099C5.18125 18.3091 5.17891 18.3079 5.1767 18.3072C4.87114 18.2126 4.604 18.0225 4.41464 17.7647C4.22527 17.5069 4.12368 17.1951 4.12483 16.8752H14.7995C14.93 17.1018 14.9991 17.3585 14.9998 17.62C15.0005 17.8815 14.9329 18.1386 14.8036 18.3659L12.4619 18.3718C12.1401 18.3721 11.8248 18.4621 11.5514 18.6318C11.2781 18.8015 11.0575 19.0441 10.9144 19.3323C10.892 19.3764 10.8784 19.4245 10.8746 19.4739C10.8708 19.5232 10.8768 19.5728 10.8923 19.6198C10.9078 19.6668 10.9324 19.7103 10.9647 19.7478C10.9971 19.7852 11.0365 19.8159 11.0808 19.8381C11.1251 19.8602 11.1733 19.8734 11.2226 19.8768C11.272 19.8802 11.3216 19.8738 11.3685 19.858C11.4154 19.8421 11.4587 19.8172 11.4959 19.7845C11.5331 19.7519 11.5634 19.7122 11.5852 19.6678C11.6665 19.504 11.7918 19.3662 11.9471 19.2697C12.1024 19.1733 12.2815 19.122 12.4643 19.1218L13.7857 19.1184C13.7392 19.1473 13.6996 19.1859 13.6696 19.2316C13.4201 19.6136 12.9842 19.9328 12.4735 20.1073C12.1396 20.2241 11.7849 20.2694 11.4323 20.2402C11.3731 20.2346 11.3134 20.2432 11.2581 20.2653C11.2029 20.2873 11.1537 20.3222 11.1146 20.3671C10.7742 20.7575 10.1541 20.9999 9.49623 20.9999C8.83267 20.9999 8.20984 20.7543 7.8708 20.359C7.83716 20.3198 7.79579 20.288 7.74927 20.2655C7.70275 20.243 7.65209 20.2304 7.60047 20.2284C7.3326 20.2172 7.06809 20.1645 6.81639 20.0721C6.25342 19.8681 5.79386 19.4849 5.57388 19.0643L6.94731 19.1095C7.1997 19.1161 7.43987 19.2195 7.61814 19.3983L7.9847 19.7649C8.01938 19.8004 8.06074 19.8286 8.1064 19.848C8.15206 19.8673 8.20111 19.8774 8.25071 19.8777C8.30031 19.878 8.34947 19.8684 8.39535 19.8496C8.44123 19.8308 8.48291 19.803 8.51798 19.7679C8.55306 19.7329 8.58083 19.6912 8.59968 19.6453C8.61854 19.5994 8.62811 19.5503 8.62784 19.5007C8.62756 19.4511 8.61745 19.402 8.59809 19.3563C8.57873 19.3107 8.55051 19.2693 8.51505 19.2346L8.51481 19.2352ZM5.1767 14.6933C5.17914 14.6925 5.18139 14.6913 5.18378 14.6905C5.20544 14.6944 5.2274 14.6965 5.24941 14.6966H5.26197L6.96822 14.6403C7.41223 14.6286 7.83474 14.4466 8.14834 14.132L8.51491 13.7654C8.55037 13.7307 8.57859 13.6894 8.59795 13.6437C8.61731 13.598 8.62742 13.549 8.6277 13.4994C8.62797 13.4498 8.6184 13.4006 8.59954 13.3548C8.58069 13.3089 8.55292 13.2672 8.51784 13.2321C8.48277 13.1971 8.44109 13.1693 8.39521 13.1505C8.34933 13.1316 8.30017 13.1221 8.25057 13.1223C8.20097 13.1226 8.15192 13.1327 8.10626 13.1521C8.0606 13.1715 8.01924 13.1997 7.98456 13.2352L7.618 13.6017C7.43923 13.7809 7.19836 13.8843 6.94534 13.8906L5.57378 13.9358C5.79381 13.5153 6.25347 13.1321 6.8163 12.9279C7.068 12.8356 7.3325 12.7829 7.60038 12.7716C7.652 12.7696 7.70266 12.757 7.74918 12.7346C7.7957 12.7121 7.83707 12.6802 7.8707 12.641C8.20984 12.2458 8.83267 12.0002 9.49623 12.0002C10.1541 12.0002 10.7742 12.2427 11.1146 12.633C11.1538 12.6778 11.203 12.7127 11.2582 12.7347C11.3134 12.7568 11.3731 12.7654 11.4323 12.7599C11.7849 12.7307 12.1396 12.776 12.4735 12.8928C12.9842 13.0673 13.4201 13.3865 13.6696 13.7685C13.6996 13.8142 13.7392 13.8528 13.7857 13.8817L12.4648 13.8783C12.2819 13.8781 12.1027 13.827 11.9473 13.7305C11.7919 13.6341 11.6665 13.4962 11.5852 13.3323C11.5403 13.2442 11.4623 13.1774 11.3683 13.1465C11.2743 13.1155 11.1719 13.123 11.0834 13.1673C10.9949 13.2115 10.9275 13.289 10.8958 13.3827C10.8642 13.4765 10.8709 13.5789 10.9144 13.6678C11.0575 13.9561 11.2782 14.1987 11.5517 14.3684C11.8251 14.5381 12.1405 14.6281 12.4624 14.6283L14.8036 14.6342C14.9329 14.8615 15.0005 15.1186 14.9998 15.3801C14.9991 15.6416 14.93 15.8983 14.7995 16.1249L4.12483 16.1252C4.12368 15.8054 4.22527 15.4936 4.41464 15.2358C4.604 14.978 4.87114 14.7878 5.1767 14.6933V14.6933ZM9.74983 22.5003C8.06022 22.5003 6.50987 22.074 5.26637 21.2675C4.01566 20.4565 3.16731 19.3128 2.81298 17.9602C2.70689 17.554 2.50045 17.1809 2.21261 16.8752H3.37483C3.37327 17.3146 3.50101 17.7447 3.74214 18.112C3.98326 18.4793 4.32712 18.7676 4.73087 18.9409C4.91397 19.727 5.60856 20.4325 6.56083 20.7776C6.83555 20.8779 7.12214 20.9419 7.41339 20.9682C7.90694 21.4605 8.67194 21.7503 9.49623 21.7503C10.3021 21.7503 11.0535 21.4722 11.5478 20.9986C11.9449 21.0084 12.3406 20.9471 12.7161 20.8175C13.3413 20.6038 13.8689 20.2304 14.2168 19.7584C14.4996 19.6631 14.7606 19.5125 14.9847 19.3155C15.2088 19.1185 15.3915 18.8789 15.5223 18.6106C15.653 18.3424 15.7291 18.0508 15.7462 17.7529C15.7633 17.455 15.721 17.1567 15.6218 16.8752H15.9999C16.257 17.0821 16.4406 17.3663 16.5235 17.6857C16.6064 18.0051 16.5841 18.3427 16.46 18.6485C15.5092 21.0244 12.938 22.5003 9.74983 22.5003V22.5003ZM22.2741 13.2115C21.5911 16.2783 19.639 18.4475 17.1652 18.9037C17.2636 18.6512 17.3169 18.3834 17.3225 18.1124L18.1938 17.1049C18.4052 16.8603 18.6037 16.6048 18.7885 16.3394C18.8447 16.2577 18.8663 16.1571 18.8486 16.0595C18.8308 15.962 18.7752 15.8754 18.6938 15.8188C18.6124 15.7622 18.5118 15.7401 18.4142 15.7574C18.3166 15.7747 18.2297 15.83 18.1727 15.9111C18.0031 16.1549 17.8207 16.3896 17.6265 16.6142L17.1412 17.1752C17.0349 16.9256 16.8847 16.697 16.6978 16.5002C16.9991 16.1824 17.2025 15.7845 17.2838 15.3542C17.3651 14.9238 17.3209 14.4792 17.1563 14.0733C16.9993 13.6819 16.8021 13.3078 16.5679 12.9571L17.2639 9.83168C17.275 9.78347 17.2764 9.73354 17.2681 9.68477C17.2599 9.636 17.242 9.58935 17.2156 9.54751C17.1892 9.50566 17.1548 9.46946 17.1144 9.44097C17.0739 9.41249 17.0282 9.39229 16.98 9.38153C16.9317 9.37078 16.8817 9.36969 16.833 9.37832C16.7843 9.38694 16.7378 9.40513 16.6961 9.43181C16.6545 9.4585 16.6185 9.49317 16.5903 9.53381C16.5621 9.57446 16.5423 9.62028 16.5318 9.66864L15.9693 12.1952C15.2297 11.3894 14.2708 10.7587 13.1552 10.3399C13.376 9.67594 13.6783 9.0419 14.0552 8.45236C14.0817 8.41087 14.0998 8.36456 14.1085 8.31608C14.1171 8.26759 14.1161 8.21787 14.1056 8.16977C14.095 8.12167 14.075 8.07612 14.0469 8.03572C14.0187 7.99533 13.9828 7.96088 13.9413 7.93434C13.8999 7.9078 13.8535 7.8897 13.8051 7.88106C13.7566 7.87242 13.7069 7.87341 13.6588 7.88399C13.6107 7.89456 13.5651 7.9145 13.5247 7.94268C13.4843 7.97086 13.4499 8.00671 13.4233 8.0482C13.0123 8.69129 12.6828 9.38296 12.4424 10.1073C11.8973 9.95602 11.3399 9.85313 10.7767 9.79985C11.7054 6.854 13.9148 4.91499 16.5005 4.81899C17.1204 4.79754 17.71 4.54542 18.1537 4.11202C18.3716 4.69276 18.7984 5.17124 19.3506 5.45373C20.5937 6.09354 21.5256 7.17022 22.0455 8.5674C22.5623 9.95641 22.6413 11.5623 22.2741 13.2115V13.2115Z" fill="#FB6D3A"/>
<path d="M17.731 6.00911C17.6339 5.9875 17.5322 6.00534 17.4483 6.0587C17.3644 6.11206 17.3051 6.19657 17.2835 6.29365L16.8659 8.16865C16.8548 8.21686 16.8534 8.26679 16.8617 8.31556C16.8699 8.36433 16.8878 8.41098 16.9142 8.45282C16.9406 8.49466 16.975 8.53086 17.0154 8.55935C17.0559 8.58783 17.1016 8.60803 17.1498 8.61879C17.1981 8.62954 17.2481 8.63064 17.2968 8.62201C17.3455 8.61338 17.392 8.59519 17.4337 8.56851C17.4753 8.54182 17.5113 8.50716 17.5395 8.46651C17.5677 8.42586 17.5876 8.38004 17.598 8.33168L18.0155 6.45668C18.0262 6.40861 18.0274 6.3589 18.0189 6.31039C18.0104 6.26188 17.9924 6.21552 17.966 6.17396C17.9395 6.1324 17.9052 6.09645 17.8649 6.06817C17.8246 6.03988 17.7791 6.01982 17.731 6.00911Z" fill="#FB6D3A"/>
<path d="M15.901 5.34964L14.9307 6.24682C14.7156 6.44572 14.5077 6.65717 14.313 6.87523C14.2799 6.91192 14.2544 6.95478 14.238 7.00135C14.2215 7.04792 14.2144 7.09729 14.2171 7.1466C14.2198 7.19592 14.2322 7.24423 14.2536 7.28874C14.275 7.33326 14.305 7.3731 14.3418 7.406C14.3786 7.43889 14.4216 7.46419 14.4683 7.48042C14.5149 7.49666 14.5643 7.50353 14.6136 7.50062C14.6629 7.49772 14.7112 7.4851 14.7556 7.46349C14.8 7.44189 14.8397 7.41173 14.8724 7.37473C15.0513 7.17448 15.2422 6.98023 15.4396 6.79751L16.4099 5.90032C16.4466 5.86704 16.4764 5.82681 16.4974 5.78196C16.5185 5.73712 16.5305 5.68854 16.5326 5.63904C16.5348 5.58954 16.5272 5.5401 16.5101 5.49358C16.4931 5.44706 16.467 5.40437 16.4334 5.36799C16.3997 5.33161 16.3592 5.30226 16.3142 5.28162C16.2691 5.26099 16.2204 5.24949 16.1709 5.24778C16.1214 5.24607 16.072 5.2542 16.0257 5.27168C15.9793 5.28916 15.9371 5.31566 15.901 5.34964Z" fill="#FB6D3A"/>
<path d="M20.063 11.7334C20.0143 11.7262 19.9646 11.7286 19.9168 11.7405C19.869 11.7525 19.8241 11.7737 19.7845 11.803C19.7449 11.8323 19.7115 11.8691 19.6862 11.9114C19.6609 11.9536 19.6441 12.0004 19.6368 12.0491L19.5958 12.3251C19.4639 13.2119 19.1918 14.072 18.7895 14.8733C18.7667 14.9174 18.7528 14.9656 18.7487 15.0151C18.7447 15.0646 18.7505 15.1144 18.7658 15.1616C18.7811 15.2088 18.8057 15.2525 18.8381 15.2902C18.8704 15.3279 18.9099 15.3587 18.9543 15.381C18.9987 15.4033 19.0471 15.4165 19.0966 15.4199C19.1462 15.4233 19.1959 15.4169 19.2429 15.4009C19.2899 15.385 19.3333 15.3599 19.3706 15.327C19.4078 15.2942 19.4381 15.2542 19.4598 15.2096C19.8977 14.3373 20.194 13.4009 20.3375 12.4355L20.3786 12.1596C20.3932 12.0612 20.3682 11.9611 20.309 11.8811C20.2498 11.8012 20.1613 11.7481 20.063 11.7334V11.7334Z" fill="#FB6D3A"/>
<path d="M20.3579 9.31394C20.3366 9.18363 20.3122 9.05224 20.2853 8.92338C20.2754 8.87502 20.256 8.82908 20.2284 8.78821C20.2007 8.74734 20.1652 8.71234 20.1239 8.68522C20.0827 8.65809 20.0365 8.63938 19.988 8.63015C19.9395 8.62092 19.8897 8.62135 19.8413 8.63143C19.793 8.64151 19.7472 8.66103 19.7064 8.68887C19.6656 8.71671 19.6308 8.75233 19.6038 8.79368C19.5768 8.83502 19.5583 8.88129 19.5492 8.92982C19.5402 8.97835 19.5408 9.02819 19.5511 9.07647C19.5758 9.19479 19.5982 9.31554 19.6178 9.4353C19.6761 9.79176 19.7116 10.1516 19.7241 10.5125C19.7274 10.6097 19.7683 10.7017 19.8382 10.7693C19.9081 10.8368 20.0014 10.8746 20.0986 10.8747H20.1117C20.2111 10.8713 20.3051 10.8285 20.3729 10.7558C20.4408 10.6831 20.477 10.5865 20.4736 10.4871C20.46 10.0941 20.4214 9.70238 20.358 9.31432L20.3579 9.31394Z" fill="#FB6D3A"/>
<path d="M19.2514 7.99923C19.2677 8.0457 19.293 8.08851 19.3258 8.12521C19.3587 8.1619 19.3985 8.19177 19.4429 8.21309C19.4873 8.23442 19.5354 8.2468 19.5846 8.24951C19.6338 8.25223 19.683 8.24523 19.7295 8.22892C19.776 8.2126 19.8188 8.1873 19.8555 8.15444C19.8922 8.12158 19.922 8.08182 19.9434 8.03742C19.9647 7.99302 19.9771 7.94486 19.9798 7.89568C19.9825 7.8465 19.9755 7.79727 19.9592 7.75079C19.9099 7.61017 19.8564 7.46954 19.8002 7.33116L19.3537 6.23368C19.3159 6.14206 19.2433 6.06914 19.1519 6.03087C19.0604 5.99259 18.9576 5.99208 18.8657 6.02944C18.7739 6.06679 18.7006 6.13899 18.6619 6.23023C18.6232 6.32146 18.6221 6.42433 18.659 6.51634L19.1055 7.61382C19.1568 7.74071 19.2059 7.87032 19.2514 7.99923Z" fill="#FB6D3A"/>
<path d="M8.51494 15.6404L8.73464 15.4206C9.00388 15.1514 9.36904 15.0002 9.74979 15.0002C10.1305 15.0002 10.4957 15.1514 10.7649 15.4206L10.9846 15.6403C11.0194 15.6751 11.0608 15.7027 11.1063 15.7216C11.1518 15.7404 11.2005 15.7501 11.2498 15.7501C11.299 15.7501 11.3478 15.7404 11.3933 15.7216C11.4388 15.7027 11.4801 15.6751 11.5149 15.6403C11.5498 15.6055 11.5774 15.5641 11.5962 15.5186C11.6151 15.4731 11.6248 15.4244 11.6248 15.3751C11.6248 15.3259 11.6151 15.2771 11.5962 15.2316C11.5774 15.1861 11.5498 15.1448 11.5149 15.11L11.2953 14.8903C10.8854 14.4804 10.3295 14.2502 9.74979 14.2502C9.17012 14.2502 8.61419 14.4804 8.2043 14.8903L7.98459 15.11C7.91427 15.1803 7.87476 15.2757 7.87476 15.3752C7.87476 15.4746 7.91427 15.57 7.98459 15.6404C8.05492 15.7107 8.15031 15.7502 8.24977 15.7502C8.34922 15.7502 8.44461 15.7107 8.51494 15.6404V15.6404Z" fill="#FB6D3A"/>
<path d="M11.2952 18.11L11.5149 17.8903C11.5498 17.8555 11.5774 17.8142 11.5962 17.7687C11.6151 17.7232 11.6248 17.6744 11.6248 17.6252C11.6248 17.5759 11.6151 17.5272 11.5962 17.4817C11.5774 17.4362 11.5498 17.3948 11.5149 17.36C11.4801 17.3252 11.4388 17.2975 11.3933 17.2787C11.3478 17.2599 11.299 17.2502 11.2498 17.2502C11.2005 17.2502 11.1518 17.2599 11.1063 17.2787C11.0608 17.2975 11.0194 17.3252 10.9846 17.36L10.7649 17.5797C10.4957 17.8489 10.1305 18.0002 9.74974 18.0002C9.36899 18.0002 9.00383 17.8489 8.73459 17.5797L8.51494 17.36C8.44461 17.2897 8.34922 17.2502 8.24977 17.2502C8.15031 17.2502 8.05492 17.2897 7.98459 17.36C7.91427 17.4304 7.87476 17.5258 7.87476 17.6252C7.87476 17.7247 7.91427 17.8201 7.98459 17.8904L8.20425 18.11C8.61414 18.5199 9.17007 18.7502 9.74974 18.7502C10.3294 18.7502 10.8853 18.5199 11.2952 18.11V18.11Z" fill="#FB6D3A"/>
</g>
<defs>
<clipPath id="clip0_896_103">
<rect width="24" height="24" fill="white"/>
</clipPath>
</defs>
</svg>
